<svg width="141" height="21" viewBox="0 0 141 21" fill="none" xmlns="http://www.w3.org/2000/svg">
<path d="M20.4588 9.26612L16.24 12.9064L17.5253 18.3505C17.5962 18.646 17.578 18.9559 17.4729 19.2411C17.3677 19.5263 17.1804 19.7739 16.9346 19.9526C16.6889 20.1314 16.3956 20.2333 16.0919 20.2455C15.7883 20.2577 15.4878 20.1796 15.2285 20.0211L10.4941 17.1074L5.75689 20.0211C5.49761 20.1787 5.19749 20.256 4.89434 20.2434C4.59118 20.2308 4.29854 20.1287 4.05327 19.9501C3.808 19.7715 3.62106 19.5243 3.51599 19.2396C3.41093 18.955 3.39243 18.6456 3.46283 18.3505L4.75283 12.9064L0.534082 9.26612C0.304674 9.06785 0.138762 8.80638 0.0570658 8.51438C-0.0246303 8.22238 -0.0184894 7.91278 0.0747213 7.62425C0.167932 7.33571 0.344082 7.08103 0.581172 6.89202C0.818262 6.703 1.10578 6.58802 1.40783 6.56143L6.93908 6.11518L9.07283 0.951432C9.18833 0.670011 9.3849 0.42929 9.63755 0.259874C9.89021 0.0904583 10.1875 0 10.4917 0C10.7959 0 11.0933 0.0904583 11.3459 0.259874C11.5986 0.42929 11.7951 0.670011 11.9106 0.951432L14.0435 6.11518L19.5747 6.56143C19.8774 6.58703 20.1657 6.70137 20.4037 6.89013C20.6416 7.07888 20.8186 7.33366 20.9124 7.62255C21.0062 7.91143 21.0126 8.22157 20.9309 8.5141C20.8492 8.80664 20.683 9.06856 20.4531 9.26706L20.4588 9.26612Z" fill="#FFD700"/>
<path d="M50.4588 9.26612L46.24 12.9064L47.5253 18.3505C47.5962 18.646 47.578 18.9559 47.4729 19.2411C47.3677 19.5263 47.1804 19.7739 46.9346 19.9526C46.6889 20.1314 46.3956 20.2333 46.0919 20.2455C45.7883 20.2577 45.4878 20.1796 45.2285 20.0211L40.4941 17.1074L35.7569 20.0211C35.4976 20.1787 35.1975 20.256 34.8943 20.2434C34.5912 20.2308 34.2985 20.1287 34.0533 19.9501C33.808 19.7715 33.6211 19.5243 33.516 19.2396C33.4109 18.955 33.3924 18.6456 33.4628 18.3505L34.7528 12.9064L30.5341 9.26612C30.3047 9.06785 30.1388 8.80638 30.0571 8.51438C29.9754 8.22238 29.9815 7.91278 30.0747 7.62425C30.1679 7.33571 30.3441 7.08103 30.5812 6.89202C30.8183 6.703 31.1058 6.58802 31.4078 6.56143L36.9391 6.11518L39.0728 0.951432C39.1883 0.670011 39.3849 0.42929 39.6376 0.259874C39.8902 0.0904583 40.1875 0 40.4917 0C40.7959 0 41.0933 0.0904583 41.3459 0.259874C41.5986 0.42929 41.7951 0.670011 41.9106 0.951432L44.0435 6.11518L49.5747 6.56143C49.8774 6.58703 50.1657 6.70137 50.4037 6.89013C50.6416 7.07888 50.8186 7.33366 50.9124 7.62255C51.0062 7.91143 51.0126 8.22157 50.9309 8.5141C50.8492 8.80664 50.683 9.06856 50.4531 9.26706L50.4588 9.26612Z" fill="#FFD700"/>
<path d="M80.4588 9.26612L76.24 12.9064L77.5253 18.3505C77.5962 18.646 77.578 18.9559 77.4729 19.2411C77.3677 19.5263 77.1804 19.7739 76.9346 19.9526C76.6889 20.1314 76.3956 20.2333 76.0919 20.2455C75.7883 20.2577 75.4878 20.1796 75.2285 20.0211L70.4941 17.1074L65.7569 20.0211C65.4976 20.1787 65.1975 20.256 64.8943 20.2434C64.5912 20.2308 64.2985 20.1287 64.0533 19.9501C63.808 19.7715 63.6211 19.5243 63.516 19.2396C63.4109 18.955 63.3924 18.6456 63.4628 18.3505L64.7528 12.9064L60.5341 9.26612C60.3047 9.06785 60.1388 8.80638 60.0571 8.51438C59.9754 8.22238 59.9815 7.91278 60.0747 7.62425C60.1679 7.33571 60.3441 7.08103 60.5812 6.89202C60.8183 6.703 61.1058 6.58802 61.4078 6.56143L66.9391 6.11518L69.0728 0.951432C69.1883 0.670011 69.3849 0.42929 69.6376 0.259874C69.8902 0.0904583 70.1875 0 70.4917 0C70.7959 0 71.0933 0.0904583 71.3459 0.259874C71.5986 0.42929 71.7951 0.670011 71.9106 0.951432L74.0435 6.11518L79.5747 6.56143C79.8774 6.58703 80.1657 6.70137 80.4037 6.89013C80.6416 7.07888 80.8186 7.33366 80.9124 7.62255C81.0062 7.91143 81.0126 8.22157 80.9309 8.5141C80.8492 8.80664 80.683 9.06856 80.4531 9.26706L80.4588 9.26612Z" fill="#FFD700"/>
<path d="M140.922 7.618C140.829 7.32974 140.652 7.07568 140.414 6.88783C140.176 6.69998 139.888 6.58673 139.586 6.56237L134.054 6.11612L131.919 0.951432C131.803 0.670011 131.607 0.42929 131.354 0.259874C131.101 0.0904583 130.804 0 130.5 0C130.196 0 129.898 0.0904583 129.646 0.259874C129.393 0.42929 129.196 0.670011 129.081 0.951432L126.947 6.11518L121.413 6.56237C121.11 6.58797 120.822 6.70231 120.584 6.89106C120.346 7.07982 120.169 7.3346 120.075 7.62348C119.982 7.91237 119.975 8.22251 120.057 8.51504C120.139 8.80758 120.305 9.0695 120.535 9.268L124.753 12.9083L123.468 18.3514C123.396 18.6471 123.414 18.9575 123.519 19.2432C123.623 19.5289 123.811 19.777 124.057 19.956C124.303 20.135 124.597 20.2369 124.901 20.2486C125.205 20.2604 125.506 20.1815 125.765 20.0221L130.499 17.1083L135.237 20.0221C135.496 20.1796 135.796 20.257 136.099 20.2444C136.402 20.2317 136.695 20.1297 136.94 19.951C137.185 19.7724 137.372 19.5252 137.477 19.2406C137.582 18.9559 137.601 18.6466 137.531 18.3514L136.241 12.9074L140.459 9.26706C140.691 9.06889 140.859 8.8064 140.941 8.51284C141.024 8.21927 141.017 7.90784 140.922 7.618ZM139.484 8.13081L134.919 12.0683C134.815 12.1581 134.737 12.2747 134.695 12.4055C134.652 12.5362 134.647 12.6761 134.679 12.8099L136.074 18.6974C136.077 18.7055 136.078 18.7147 136.075 18.723C136.072 18.7314 136.066 18.7383 136.058 18.7424C136.041 18.7555 136.036 18.7527 136.022 18.7424L130.892 15.5877C130.774 15.515 130.638 15.4766 130.499 15.4766C130.361 15.4766 130.225 15.515 130.107 15.5877L124.977 18.7442C124.962 18.7527 124.959 18.7555 124.941 18.7442C124.933 18.7402 124.927 18.7333 124.924 18.7249C124.921 18.7166 124.921 18.7074 124.925 18.6992L126.32 12.8117C126.352 12.678 126.346 12.5381 126.304 12.4073C126.262 12.2766 126.184 12.1599 126.08 12.0702L121.514 8.13268C121.503 8.12331 121.493 8.11487 121.502 8.08581C121.512 8.05675 121.519 8.0605 121.533 8.05862L127.526 7.57487C127.663 7.56308 127.795 7.51361 127.906 7.4319C128.017 7.35019 128.103 7.23941 128.156 7.11175L130.464 1.52331C130.471 1.50737 130.474 1.49987 130.497 1.49987C130.519 1.49987 130.522 1.50737 130.529 1.52331L132.843 7.11175C132.896 7.23946 132.983 7.35012 133.095 7.43152C133.206 7.51291 133.338 7.56187 133.476 7.573L139.468 8.05675C139.482 8.05675 139.491 8.05675 139.499 8.08393C139.508 8.11112 139.499 8.12143 139.484 8.13081Z" fill="white"/>
<path d="M111.922 7.618C111.829 7.32974 111.652 7.07568 111.414 6.88783C111.176 6.69998 110.888 6.58673 110.586 6.56237L105.054 6.11612L102.919 0.951432C102.803 0.670011 102.607 0.42929 102.354 0.259874C102.101 0.0904583 101.804 0 101.5 0C101.196 0 100.898 0.0904583 100.646 0.259874C100.393 0.42929 100.196 0.670011 100.081 0.951432L97.9471 6.11518L92.4131 6.56237C92.1104 6.58797 91.8221 6.70231 91.5841 6.89106C91.3462 7.07982 91.1692 7.3346 91.0754 7.62348C90.9816 7.91237 90.9752 8.22251 91.0569 8.51504C91.1386 8.80758 91.3048 9.0695 91.5346 9.268L95.7534 12.9083L94.4681 18.3514C94.3962 18.6471 94.4138 18.9575 94.5186 19.2432C94.6235 19.5289 94.8109 19.777 95.057 19.956C95.3031 20.135 95.5968 20.2369 95.9009 20.2486C96.205 20.2604 96.5058 20.1815 96.765 20.0221L101.499 17.1083L106.237 20.0221C106.496 20.1796 106.796 20.257 107.099 20.2444C107.402 20.2317 107.695 20.1297 107.94 19.951C108.185 19.7724 108.372 19.5252 108.477 19.2406C108.582 18.9559 108.601 18.6466 108.531 18.3514L107.241 12.9074L111.459 9.26706C111.691 9.06889 111.859 8.8064 111.941 8.51284C112.024 8.21927 112.017 7.90784 111.922 7.618ZM110.484 8.13081L105.919 12.0683C105.815 12.1581 105.737 12.2747 105.695 12.4055C105.652 12.5362 105.647 12.6761 105.679 12.8099L107.074 18.6974C107.077 18.7055 107.078 18.7147 107.075 18.723C107.072 18.7314 107.066 18.7383 107.058 18.7424C107.041 18.7555 107.036 18.7527 107.022 18.7424L101.892 15.5877C101.774 15.515 101.638 15.4766 101.499 15.4766C101.361 15.4766 101.225 15.515 101.107 15.5877L95.9765 18.7442C95.9625 18.7527 95.9587 18.7555 95.9409 18.7442C95.933 18.7402 95.9269 18.7333 95.924 18.7249C95.921 18.7166 95.9213 18.7074 95.925 18.6992L97.32 12.8117C97.3517 12.678 97.3462 12.5381 97.3039 12.4073C97.2615 12.2766 97.1841 12.1599 97.08 12.0702L92.5143 8.13268C92.5031 8.12331 92.4928 8.11487 92.5021 8.08581C92.5115 8.05675 92.519 8.0605 92.5331 8.05862L98.5256 7.57487C98.663 7.56308 98.7946 7.51361 98.9057 7.4319C99.0169 7.35019 99.1033 7.23941 99.1556 7.11175L101.464 1.52331C101.471 1.50737 101.474 1.49987 101.497 1.49987C101.519 1.49987 101.522 1.50737 101.529 1.52331L103.843 7.11175C103.896 7.23946 103.983 7.35012 104.095 7.43152C104.206 7.51291 104.338 7.56187 104.476 7.573L110.468 8.05675C110.482 8.05675 110.491 8.05675 110.499 8.08393C110.508 8.11112 110.499 8.12143 110.484 8.13081Z" fill="white"/>
</svg>
