<svg width="141" height="21" viewBox="0 0 141 21" fill="none" xmlns="http://www.w3.org/2000/svg">
<path d="M20.4588 9.26612L16.24 12.9064L17.5253 18.3505C17.5962 18.646 17.578 18.9559 17.4729 19.2411C17.3677 19.5263 17.1804 19.7739 16.9346 19.9526C16.6889 20.1314 16.3956 20.2333 16.0919 20.2455C15.7883 20.2577 15.4878 20.1796 15.2285 20.0211L10.4941 17.1074L5.75689 20.0211C5.49761 20.1787 5.19749 20.256 4.89434 20.2434C4.59118 20.2308 4.29854 20.1287 4.05327 19.9501C3.808 19.7715 3.62106 19.5243 3.51599 19.2396C3.41093 18.955 3.39243 18.6456 3.46283 18.3505L4.75283 12.9064L0.534082 9.26612C0.304674 9.06785 0.138762 8.80638 0.0570658 8.51438C-0.0246303 8.22238 -0.0184894 7.91278 0.0747213 7.62425C0.167932 7.33571 0.344082 7.08103 0.581172 6.89202C0.818262 6.703 1.10578 6.58802 1.40783 6.56143L6.93908 6.11518L9.07283 0.951432C9.18833 0.670011 9.3849 0.42929 9.63755 0.259874C9.89021 0.0904583 10.1875 0 10.4917 0C10.7959 0 11.0933 0.0904583 11.3459 0.259874C11.5986 0.42929 11.7951 0.670011 11.9106 0.951432L14.0435 6.11518L19.5747 6.56143C19.8774 6.58703 20.1657 6.70137 20.4037 6.89013C20.6416 7.07888 20.8186 7.33366 20.9124 7.62255C21.0062 7.91143 21.0126 8.22157 20.9309 8.5141C20.8492 8.80664 20.683 9.06856 20.4531 9.26706L20.4588 9.26612Z" fill="#FFD700"/>
<path d="M50.4588 9.26612L46.24 12.9064L47.5253 18.3505C47.5962 18.646 47.578 18.9559 47.4729 19.2411C47.3677 19.5263 47.1804 19.7739 46.9346 19.9526C46.6889 20.1314 46.3956 20.2333 46.0919 20.2455C45.7883 20.2577 45.4878 20.1796 45.2285 20.0211L40.4941 17.1074L35.7569 20.0211C35.4976 20.1787 35.1975 20.256 34.8943 20.2434C34.5912 20.2308 34.2985 20.1287 34.0533 19.9501C33.808 19.7715 33.6211 19.5243 33.516 19.2396C33.4109 18.955 33.3924 18.6456 33.4628 18.3505L34.7528 12.9064L30.5341 9.26612C30.3047 9.06785 30.1388 8.80638 30.0571 8.51438C29.9754 8.22238 29.9815 7.91278 30.0747 7.62425C30.1679 7.33571 30.3441 7.08103 30.5812 6.89202C30.8183 6.703 31.1058 6.58802 31.4078 6.56143L36.9391 6.11518L39.0728 0.951432C39.1883 0.670011 39.3849 0.42929 39.6376 0.259874C39.8902 0.0904583 40.1875 0 40.4917 0C40.7959 0 41.0933 0.0904583 41.3459 0.259874C41.5986 0.42929 41.7951 0.670011 41.9106 0.951432L44.0435 6.11518L49.5747 6.56143C49.8774 6.58703 50.1657 6.70137 50.4037 6.89013C50.6416 7.07888 50.8186 7.33366 50.9124 7.62255C51.0062 7.91143 51.0126 8.22157 50.9309 8.5141C50.8492 8.80664 50.683 9.06856 50.4531 9.26706L50.4588 9.26612Z" fill="#FFD700"/>
<path d="M80.4588 9.26612L76.24 12.9064L77.5253 18.3505C77.5962 18.646 77.578 18.9559 77.4729 19.2411C77.3677 19.5263 77.1804 19.7739 76.9346 19.9526C76.6889 20.1314 76.3956 20.2333 76.0919 20.2455C75.7883 20.2577 75.4878 20.1796 75.2285 20.0211L70.4941 17.1074L65.7569 20.0211C65.4976 20.1787 65.1975 20.256 64.8943 20.2434C64.5912 20.2308 64.2985 20.1287 64.0533 19.9501C63.808 19.7715 63.6211 19.5243 63.516 19.2396C63.4109 18.955 63.3924 18.6456 63.4628 18.3505L64.7528 12.9064L60.5341 9.26612C60.3047 9.06785 60.1388 8.80638 60.0571 8.51438C59.9754 8.22238 59.9815 7.91278 60.0747 7.62425C60.1679 7.33571 60.3441 7.08103 60.5812 6.89202C60.8183 6.703 61.1058 6.58802 61.4078 6.56143L66.9391 6.11518L69.0728 0.951432C69.1883 0.670011 69.3849 0.42929 69.6376 0.259874C69.8902 0.0904583 70.1875 0 70.4917 0C70.7959 0 71.0933 0.0904583 71.3459 0.259874C71.5986 0.42929 71.7951 0.670011 71.9106 0.951432L74.0435 6.11518L79.5747 6.56143C79.8774 6.58703 80.1657 6.70137 80.4037 6.89013C80.6416 7.07888 80.8186 7.33366 80.9124 7.62255C81.0062 7.91143 81.0126 8.22157 80.9309 8.5141C80.8492 8.80664 80.683 9.06856 80.4531 9.26706L80.4588 9.26612Z" fill="#FFD700"/>
<path d="M110.459 9.26612L106.24 12.9064L107.525 18.3505C107.596 18.646 107.578 18.9559 107.473 19.2411C107.368 19.5263 107.18 19.7739 106.935 19.9526C106.689 20.1314 106.396 20.2333 106.092 20.2455C105.788 20.2577 105.488 20.1796 105.228 20.0211L100.494 17.1074L95.7569 20.0211C95.4976 20.1787 95.1975 20.256 94.8943 20.2434C94.5912 20.2308 94.2985 20.1287 94.0533 19.9501C93.808 19.7715 93.6211 19.5243 93.516 19.2396C93.4109 18.955 93.3924 18.6456 93.4628 18.3505L94.7528 12.9064L90.5341 9.26612C90.3047 9.06785 90.1388 8.80638 90.0571 8.51438C89.9754 8.22238 89.9815 7.91278 90.0747 7.62425C90.1679 7.33571 90.3441 7.08103 90.5812 6.89202C90.8183 6.703 91.1058 6.58802 91.4078 6.56143L96.9391 6.11518L99.0728 0.951432C99.1883 0.670011 99.3849 0.42929 99.6376 0.259874C99.8902 0.0904583 100.188 0 100.492 0C100.796 0 101.093 0.0904583 101.346 0.259874C101.599 0.42929 101.795 0.670011 101.911 0.951432L104.043 6.11518L109.575 6.56143C109.877 6.58703 110.166 6.70137 110.404 6.89013C110.642 7.07888 110.819 7.33366 110.912 7.62255C111.006 7.91143 111.013 8.22157 110.931 8.5141C110.849 8.80664 110.683 9.06856 110.453 9.26706L110.459 9.26612Z" fill="#FFD700"/>
<path d="M140.459 9.26612L136.24 12.9064L137.525 18.3505C137.596 18.646 137.578 18.9559 137.473 19.2411C137.368 19.5263 137.18 19.7739 136.935 19.9526C136.689 20.1314 136.396 20.2333 136.092 20.2455C135.788 20.2577 135.488 20.1796 135.228 20.0211L130.494 17.1074L125.757 20.0211C125.498 20.1787 125.197 20.256 124.894 20.2434C124.591 20.2308 124.299 20.1287 124.053 19.9501C123.808 19.7715 123.621 19.5243 123.516 19.2396C123.411 18.955 123.392 18.6456 123.463 18.3505L124.753 12.9064L120.534 9.26612C120.305 9.06785 120.139 8.80638 120.057 8.51438C119.975 8.22238 119.982 7.91278 120.075 7.62425C120.168 7.33571 120.344 7.08103 120.581 6.89202C120.818 6.703 121.106 6.58802 121.408 6.56143L126.939 6.11518L129.073 0.951432C129.188 0.670011 129.385 0.42929 129.638 0.259874C129.89 0.0904583 130.188 0 130.492 0C130.796 0 131.093 0.0904583 131.346 0.259874C131.599 0.42929 131.795 0.670011 131.911 0.951432L134.043 6.11518L139.575 6.56143C139.877 6.58703 140.166 6.70137 140.404 6.89013C140.642 7.07888 140.819 7.33366 140.912 7.62255C141.006 7.91143 141.013 8.22157 140.931 8.5141C140.849 8.80664 140.683 9.06856 140.453 9.26706L140.459 9.26612Z" fill="#FFD700"/>
</svg>
