<svg width="20" height="18" viewBox="0 0 20 18" fill="none" xmlns="http://www.w3.org/2000/svg">
<path d="M19.1663 6.05897L10.1663 0.155815C10.043 0.074913 9.89816 0.0317383 9.75 0.0317383C9.60184 0.0317383 9.457 0.074913 9.33375 0.155815L0.33375 6.05897C0.23101 6.12641 0.146789 6.21777 0.0885654 6.32494C0.0303423 6.4321 -8.00615e-05 6.55175 1.58235e-07 6.67327V16.2659C1.58235e-07 16.6573 0.158035 17.0327 0.43934 17.3094C0.720644 17.5862 1.10218 17.7417 1.5 17.7417H18C18.3978 17.7417 18.7794 17.5862 19.0607 17.3094C19.342 17.0327 19.5 16.6573 19.5 16.2659V6.67327C19.5001 6.55175 19.4697 6.4321 19.4114 6.32494C19.3532 6.21777 19.269 6.12641 19.1663 6.05897ZM1.5 16.2659V8.10571L7.67813 12.4408C7.80533 12.5302 7.95774 12.5783 8.11406 12.5783H11.3859C11.5423 12.5783 11.6947 12.5302 11.8219 12.4408L18 8.10571V16.2659H1.5Z" fill="#8578D2"/>
</svg>
