<svg width="17" height="21" viewBox="0 0 17 21" fill="none" xmlns="http://www.w3.org/2000/svg">
<path d="M8.25 0C6.06273 0.00244126 3.96575 0.85839 2.41911 2.38006C0.872472 3.90174 0.00248131 5.96487 0 8.11684C0 15.0623 7.5 20.3078 7.81969 20.5273C7.94579 20.6142 8.09603 20.6608 8.25 20.6608C8.40397 20.6608 8.55421 20.6142 8.68031 20.5273C9 20.3078 16.5 15.0623 16.5 8.11684C16.4975 5.96487 15.6275 3.90174 14.0809 2.38006C12.5343 0.85839 10.4373 0.00244126 8.25 0ZM8.25 5.16526C8.84334 5.16526 9.42336 5.33837 9.91671 5.66269C10.4101 5.98702 10.7946 6.44799 11.0216 6.98732C11.2487 7.52665 11.3081 8.12012 11.1924 8.69267C11.0766 9.26522 10.7909 9.79114 10.3713 10.2039C9.95176 10.6167 9.41721 10.8978 8.83527 11.0117C8.25333 11.1256 7.65013 11.0671 7.10195 10.8437C6.55377 10.6203 6.08524 10.242 5.75559 9.75665C5.42595 9.27127 5.25 8.70061 5.25 8.11684C5.25 7.33403 5.56607 6.58329 6.12868 6.02976C6.69129 5.47623 7.45435 5.16526 8.25 5.16526Z" fill="#8578D2"/>
</svg>
