<svg width="9" height="7" viewBox="0 0 9 7" fill="none" xmlns="http://www.w3.org/2000/svg">
<path d="M8.8945 0.664195L3.13476 6.88595C3.10133 6.92211 3.06163 6.95079 3.01792 6.97036C2.97422 6.98993 2.92738 7 2.88007 7C2.83276 7 2.78592 6.98993 2.74222 6.97036C2.69852 6.95079 2.65882 6.92211 2.62538 6.88595L0.105495 4.16393C0.0379478 4.09097 0 3.992 0 3.88881C0 3.78563 0.0379478 3.68666 0.105495 3.6137C0.173043 3.54073 0.264657 3.49974 0.360184 3.49974C0.455711 3.49974 0.547325 3.54073 0.614873 3.6137L2.88007 6.06108L8.38513 0.113958C8.45267 0.0409916 8.54429 -7.6882e-10 8.63982 0C8.73534 7.68821e-10 8.82696 0.0409916 8.8945 0.113958C8.96205 0.186923 9 0.285887 9 0.389076C9 0.492265 8.96205 0.591229 8.8945 0.664195Z" fill="white"/>
</svg>
