<svg width="19" height="19" viewBox="0 0 19 19" fill="none" xmlns="http://www.w3.org/2000/svg">
<path d="M18.7388 14.3532C18.5716 15.603 17.9477 16.7502 16.9837 17.5806C16.0196 18.411 14.7813 18.8677 13.5 18.8654C6.05626 18.8654 8.4831e-06 12.9069 8.4831e-06 5.58329C-0.00228837 4.32268 0.461903 3.10435 1.30588 2.15586C2.14986 1.20736 3.31592 0.593559 4.58626 0.429095C4.9075 0.390504 5.2328 0.455163 5.51362 0.613419C5.79444 0.771676 6.0157 1.01504 6.14438 1.30719L8.12438 5.65616V5.66722C8.2229 5.89086 8.26359 6.13501 8.24282 6.37789C8.22204 6.62076 8.14044 6.85479 8.00532 7.05908C7.98845 7.08398 7.97063 7.10704 7.95188 7.1301L6.00001 9.40651C6.7022 10.8104 8.1947 12.2658 9.64032 12.9585L11.9222 11.0483C11.9446 11.0298 11.9681 11.0125 11.9925 10.9967C12.2 10.8605 12.4387 10.7774 12.687 10.7549C12.9353 10.7323 13.1854 10.7711 13.4147 10.8675L13.4269 10.8731L17.8434 12.8202C18.1409 12.9463 18.3889 13.1638 18.5503 13.4402C18.7116 13.7165 18.7778 14.0368 18.7388 14.3532Z" fill="#8578D2"/>
</svg>
